<svg height="512pt" viewBox="0 -66 512.001 512" width="512pt" xmlns="http://www.w3.org/2000/svg"><path d="m504.5 148.886719c4.140625 0 7.5-3.355469 7.5-7.5v-84.851563c0-7.8125-3.042969-15.164062-8.574219-20.714844-5.527343-5.527343-12.882812-8.570312-20.710937-8.570312h-22.933594c-8.691406 0-15.761719 7.070312-15.761719 15.761719v28.828125h-101.539062c-4.140625 0-7.5 3.359375-7.5 7.5s3.359375 7.5 7.5 7.5h101.539062v233.0625c0 8.691406 7.070313 15.761718 15.761719 15.761718h22.933594c3.820312 0 7.410156 1.484376 10.105468 4.179688 2.695313 2.699219 4.179688 6.28125 4.179688 10.09375 0 7.878906-6.410156 14.285156-14.285156 14.285156h-459.394532c-4.585937 0-8.320312-3.734375-8.320312-8.320312v-260.738282c0-4.585937 3.734375-8.320312 8.320312-8.320312h100.96875c4.144532 0 7.5-3.359375 7.5-7.5s-3.355468-7.5-7.5-7.5h-100.96875c-12.859374 0-23.320312 10.460938-23.320312 23.320312v260.738282c0 12.859375 10.460938 23.320312 23.320312 23.320312h459.394532c16.148437 0 29.285156-13.136718 29.285156-29.285156v-178.550781c0-4.140625-3.355469-7.5-7.5-7.5-4.140625 0-7.5 3.359375-7.5 7.5v152.980469c-4.3125-2.417969-9.199219-3.699219-14.285156-3.699219h-22.933594c-.417969 0-.761719-.34375-.761719-.765625v-240.484375c0-.027344 0-.054688 0-.078125 0-.023438 0-.050782 0-.078125v-36.25c0-.421875.34375-.761719.761719-.761719h22.933594c3.820312 0 7.410156 1.484375 10.097656 4.167969 2.699219 2.710937 4.1875 6.304687 4.1875 10.117187v84.851563c0 4.144531 3.359375 7.5 7.5 7.5zm0 0"/><path d="m296.875 243.703125c4.140625 0 7.5-3.355469 7.5-7.5 0-4.140625-3.359375-7.5-7.5-7.5h-178.46875c-.0625 0-.125.003906-.1875.003906-.007812 0-.019531 0-.027344 0-.050781 0-.101562.003907-.15625.003907-.015625.003906-.03125.003906-.050781.003906-.050781.003906-.097656.003906-.148437.007812-.015626.003906-.03125.003906-.046876.003906-.234374.019532-.46875.050782-.699218.089844-.011719.003906-.023438.003906-.035156.007813-.050782.007812-.101563.019531-.152344.027343-.015625.003907-.03125.007813-.046875.011719-.050781.011719-.101563.019531-.152344.03125-.011719.003907-.023437.007813-.039063.011719-.15625.035156-.3125.078125-.464843.125-.023438.007812-.046875.011719-.066407.019531-.039062.011719-.078124.023438-.117187.039063-.03125.007812-.058594.019531-.089844.027344-.035156.011718-.070312.027343-.105469.039062-.035156.011719-.070312.027344-.105468.039062-.03125.011719-.058594.023438-.089844.035157-.066406.027343-.128906.050781-.195312.078125l-47.605469 20.40625c-6.644531 2.847656-10.769531 9.105468-10.769531 16.332031 0 7.230469 4.125 13.488281 10.769531 16.335937l47.605469 20.402344c3.808593 1.632813-.75.300782 259.113281.605469 20.589843 0 37.34375-16.753906 37.34375-37.34375 0-20.59375-16.753907-37.34375-37.34375-37.34375h-47.671875c-4.140625 0-7.5 3.355469-7.5 7.5 0 4.140625 3.359375 7.5 7.5 7.5h30.230468v44.6875h-231.214843v-44.6875zm-223.140625 24.890625c-1.460937-.625-1.679687-1.863281-1.679687-2.546875s.21875-1.921875 1.679687-2.546875l30.886719-13.238281 6.265625-2.683594v36.9375zm298.367187-24.890625h2.445313c12.316406 0 22.339844 10.023437 22.339844 22.34375 0 12.324219-10.023438 22.34375-22.339844 22.34375h-2.445313zm0 0"/><path d="m52.574219 176.570312c-2 2.003907-3.105469 4.667969-3.105469 7.5 0 2.832032 1.105469 5.496094 3.105469 7.5l1.855469 1.851563c2 2 4.664062 3.105469 7.496093 3.105469h346.9375c4.304688 0 8.148438-2.570313 9.796875-6.550782 1.648438-3.976562.746094-8.511718-2.300781-11.554687l-63.246094-63.25c-.003906-.003906-.007812-.007813-.011719-.011719-.003906-.003906-.007812-.007812-.011718-.011718l-60.484375-60.484376c-.003907-.003906-.003907-.003906-.007813-.007812 0 0-.003906-.003906-.003906-.003906l-51.550781-51.550782c-4.136719-4.136718-10.863281-4.132812-14.996094 0zm180.96875-159.753906 12.894531 12.894532-6.042969 6.039062c-2.929687 2.929688-2.929687 7.679688 0 10.609375 1.464844 1.460937 3.382813 2.195313 5.304688 2.195313 1.917969 0 3.835937-.730469 5.300781-2.195313l6.042969-6.042969 19.644531 19.644532-6.042969 6.042968c-2.925781 2.925782-2.925781 7.675782 0 10.605469 1.464844 1.464844 3.386719 2.195313 5.304688 2.195313s3.839843-.730469 5.304687-2.195313l6.039063-6.042969 19.644531 19.644532-6.039062 6.042968c-2.929688 2.929688-2.929688 7.675782 0 10.605469 1.460937 1.464844 3.382812 2.195313 5.300781 2.195313s3.839843-.730469 5.304687-2.195313l6.042969-6.042969 19.644531 19.644532-6.042968 6.042968c-2.929688 2.929688-2.929688 7.679688 0 10.605469 1.464843 1.464844 3.382812 2.199219 5.300781 2.199219 1.921875 0 3.839843-.734375 5.304687-2.199219l6.042969-6.039063 19.644531 19.644532-6.042968 6.039062c-2.929688 2.929688-2.929688 7.679688 0 10.609375 1.464843 1.460938 3.382812 2.195313 5.304687 2.195313 1.917969 0 3.835937-.730469 5.300781-2.195313l6.042969-6.042969 20.203125 20.203126h-329.414062l31.792968-31.796876 6.042969 6.042969c1.464844 1.464844 3.382813 2.199219 5.300781 2.199219 1.921875 0 3.839844-.734375 5.304688-2.199219 2.929687-2.929687 2.929687-7.675781 0-10.605469l-6.042969-6.042968 13.46875-13.46875 6.042969 6.042968c1.464844 1.464844 3.386718 2.195313 5.304687 2.195313s3.839844-.730469 5.300781-2.195313c2.929688-2.929687 2.929688-7.679687 0-10.605468l-6.039062-6.042969 13.46875-13.46875 6.042969 6.039063c1.460937 1.464843 3.382812 2.199218 5.300781 2.199218 1.921875 0 3.839844-.734375 5.304688-2.199218 2.929687-2.925782 2.929687-7.675782 0-10.605469l-6.042969-6.042969 13.46875-13.46875 6.042969 6.042969c1.464843 1.464843 3.382812 2.195312 5.304687 2.195312 1.917969 0 3.835937-.730469 5.300781-2.195312 2.929688-2.929688 2.929688-7.675781 0-10.605469l-6.039062-6.042969 13.46875-13.46875 6.042968 6.039063c1.460938 1.464844 3.382813 2.199218 5.300782 2.199218 1.917968 0 3.839844-.734374 5.304687-2.199218 2.929688-2.925782 2.929688-7.675782 0-10.605469l-6.042969-6.039063zm0 0"/><path d="m155.890625 145.460938c1.644531 3.976562 5.492187 6.546874 9.796875 6.546874h135.710938c4.304687 0 8.152343-2.570312 9.796874-6.546874 1.648438-3.976563.746094-8.511719-2.296874-11.554688l-67.855469-67.859375c-4.136719-4.132813-10.863281-4.132813-14.996094 0l-67.859375 67.859375c-3.042969 3.042969-3.945312 7.578125-2.296875 11.554688zm77.652344-65.699219 57.246093 57.246093h-114.492187zm0 0"/></svg>