<svg xmlns="http://www.w3.org/2000/svg" viewBox="0 0 388.03 241.06" width="64" height="64"><defs><style>.cls-1{fill:#fff;}</style></defs><title>kopp2l</title><g id="Layer_2" data-name="Layer 2"><g id="initials"><g id="kopp2l"><path class="cls-1" d="M381.93,22.26c-6.17-.66-12.38,1.88-18.29,3.31-6.56,1.58-13.2,2.83-19.85,4-13.32,2.28-26.74,4.11-39.9,7.22-12.55,3-25,6.25-37.59,9.06-19,4.31-37.8,9-56.61,13.9l-18.46,4.79c-11,2.85-21.78,6.6-32.55,10.22-4.53,1.52-9.41,3.73-14.14,4.5-6,1-4.88-.19-5-5.76A81.93,81.93,0,0,1,152.9,26c6-9.14,11.57-14.93,17.27-15.88,5.44-.9,9.64,3.27,12.06,7.67,1.69,3.07,2,8.45,5.92,9.77s6.54-2.24,6.77-6c.65-10.4-7.85-18.11-17.24-20.66C167.19-1.93,158,2.14,150.74,9.83a80.15,80.15,0,0,0-12.2,18c-7.73,14.87-9.61,30.87-10.69,47.36-.34,5.32.53,8.23-1.55,9.72-3.51,2.51-7.93,3.8-11.93,5.18-3.53,1.22-7.07,2.45-10.56,3.8-3,1.13-9.85,4.4-11.64,3.7-2.19-.86-2-8.69-3.89-28.93-1-10.77-1.89-21.76-4.1-32.31-.81-3.86-4.15-12.23-8.74-9.08S72.19,42.3,71.36,47a162.88,162.88,0,0,1-5.81,21.8c-4.74,14.58-11.29,29.72-16.46,44.17-2.35,6.6-4.17,7.61-14.79,13.14-5.85,3.05-11.44,6.62-17.38,9.51-5.14,2.5-11.45,5-15.49,9.23-3.83,4,.63,6,6.37,4.41,11.58-3.21,23.66-11.22,33.71-16a.56.56,0,0,1,.8.58c-.53,4.33-3.87,12.06-4.8,15.49-1.28,4.75-2.52,9.51-3.77,14.27q-3.44,13-6.24,26.13c-.6,2.85-2.12,7.41-.59,10.21,1.62,3,7.44,3.7,10.33,1,3.71-3.54,4.4-17.61,5.57-22.71,1.86-8.11,2.85-16.52,5.43-24.43s3.17-24.37,10.3-28.49a97.29,97.29,0,0,1,14.38-6.36c7.94-2.94,9.35-3.91,10.61,1.65,1.18,5.23,1.22,13.77,1.84,19.18s1.2,11.08,1.68,16.64c1.9,22.17,4.9,44.41,6.27,66.57.28,4.51,0,11.74,2.87,15.49S103,242,105,237.73c3.22-7,0-20.54-.49-28.31-1.63-24-6.73-47.62-8.86-71.53-.53-6-.79-12-1.1-18.08-.34-6.6-2.3-7.22,7-11.15,5.26-2.21,10.43-4.6,15.85-6.37,9.6-3.13,10.27-5.65,11.59,3,3.05,20,11,45.82,30.32,56.29,20.85,11.32,41.78,2.54,51.7-18.39,2.53-5.35,4.91-10.89,7.79-16,2.46,6.88-1.17,21.82,5.14,26.57,8.95,6.74,7.87-11.32,7.54-15.46-1.62-20.39-7.44-40.24-9.18-60.5-1-12.29,7.53-11.6,17.52-14q17.07-4.14,34.18-8.09c15.06-3.47,30.23-6.43,45.43-9.19,11.11-2,22.11-4.6,33.1-7.18,9.27-2.18,19-3.62,28.1-6.57,2.47-.8,7.65-3.14,7.37-6.42-.21-2.42-3.1-3.55-5.09-3.9ZM77.41,103.83c-4.5,2-5.38,2.17-10.08,4.23l-5.15,2.2c-1.59-.26.17-3.31.41-4,3.93-11.94,8-23.79,13-35.75,3-7.13,2.15-5.87,2.76,0,.14,1.38.3,2.79.46,4.17.84,7.22,1,14.55,1.51,21.8.09,1.25.73,3.93.41,5.17C80.61,102.22,77.92,103.61,77.41,103.83Zm135.34-1.46c0,.81,0,1.62-.08,2.44-1,16.63-7.88,34.64-21.34,45.19-11.64,9.13-29.81,2.86-37.43-7.62a69.77,69.77,0,0,1-12-29.26c-2.34-13.29-5-18.48,1.94-20.38,16.24-4.42,33.6-10,49.79-14.4,13.53-3.66,15.78-8,17.13,4.33C211.53,89.27,212.8,95.74,212.75,102.37Z"/></g></g></g></svg>